<svg width="352" height="115" viewBox="0 0 352 115" fill="none" xmlns="http://www.w3.org/2000/svg">
<rect x="2" y="2" width="348" height="111" rx="17" fill="#181728"/>
<rect x="1" y="1" width="350" height="113" rx="18" stroke="white" stroke-opacity="0.52" stroke-width="2"/>
<g clip-path="url(#clip0_1_52)">
<mask id="mask0_1_52" style="mask-type:luminance" maskUnits="userSpaceOnUse" x="15" y="46" width="304" height="45">
<path d="M15 46L318.003 46V90.7125H15L15 46Z" fill="white"/>
</mask>
<g mask="url(#mask0_1_52)">
<path d="M65.0841 81.253L56.7726 90.1023C56.5929 90.2946 56.3751 90.448 56.133 90.553C55.8909 90.6579 55.6297 90.7122 55.3655 90.7125H15.9657C15.7778 90.7124 15.594 90.6579 15.4368 90.5556C15.2796 90.4534 15.1558 90.3078 15.0807 90.1368C15.0055 89.9658 14.9822 89.7767 15.0136 89.5927C15.045 89.4087 15.1297 89.2379 15.2574 89.101L23.5595 80.2516C23.7393 80.0594 23.957 79.906 24.1991 79.8011C24.4412 79.6961 24.7025 79.6418 24.9667 79.6415H64.3665C64.5561 79.6376 64.7427 79.6895 64.9027 79.7906C65.0627 79.8918 65.189 80.0377 65.2657 80.2099C65.3424 80.3822 65.3661 80.5731 65.3338 80.7587C65.3015 80.9443 65.2146 81.1163 65.0841 81.253ZM56.7726 63.4285C56.5922 63.2372 56.3743 63.0844 56.1324 62.9795C55.8904 62.8746 55.6295 62.8198 55.3655 62.8184H15.9657C15.7778 62.8185 15.594 62.873 15.4368 62.9753C15.2796 63.0775 15.1558 63.2231 15.0807 63.3941C15.0055 63.5651 14.9822 63.7542 15.0136 63.9382C15.045 64.1221 15.1297 64.293 15.2574 64.4299L23.5595 73.2839C23.74 73.4753 23.9578 73.6281 24.1998 73.733C24.4417 73.8379 24.7027 73.8927 24.9667 73.8941H64.3665C64.554 73.8931 64.7371 73.8379 64.8936 73.7353C65.0501 73.6327 65.1732 73.4871 65.2477 73.3163C65.3223 73.1454 65.3452 72.9567 65.3137 72.7732C65.2821 72.5896 65.1975 72.4191 65.07 72.2826L56.7726 63.4285ZM15.9657 57.071H55.3655C55.6297 57.0708 55.891 57.0165 56.1331 56.9115C56.3752 56.8065 56.5929 56.6531 56.7726 56.4609L65.0841 47.6115C65.1815 47.5092 65.255 47.3868 65.2993 47.2531C65.3435 47.1194 65.3575 46.9776 65.3401 46.8378C65.3228 46.6981 65.2746 46.5639 65.1989 46.4448C65.1233 46.3258 65.0221 46.2248 64.9026 46.149C64.7426 46.0479 64.556 45.9961 64.3665 46H24.9667C24.7025 46.0003 24.4412 46.0546 24.1991 46.1596C23.957 46.2645 23.7393 46.4179 23.5595 46.6101L15.2574 55.4595C15.1297 55.5964 15.045 55.7673 15.0136 55.9512C14.9822 56.1352 15.0055 56.3243 15.0807 56.4953C15.1558 56.6663 15.2796 56.8119 15.4368 56.9141C15.594 57.0164 15.7778 57.0709 15.9657 57.071Z" fill="url(#paint0_linear_1_52)"/>
<path d="M113.94 64.9097H92.8611V58.0165H119.418V51.1233H92.7908C91.881 51.1183 90.9791 51.2913 90.1366 51.6324C89.2941 51.9736 88.5276 52.4762 87.8808 53.1115C87.234 53.7469 86.7195 54.5026 86.3669 55.3354C86.0142 56.1682 85.8302 57.0618 85.8254 57.9653V64.9516C85.829 65.8558 86.0121 66.7504 86.3642 67.5843C86.7163 68.4182 87.2305 69.175 87.8775 69.8113C88.5244 70.4477 89.2914 70.9511 90.1344 71.2928C90.9775 71.6346 91.8802 71.8079 92.7908 71.8028H113.898V78.696H86.3273V85.5892H113.94C115.31 85.5968 116.652 85.2006 117.795 84.4508C118.939 83.701 119.833 82.6313 120.364 81.3769C120.716 80.5442 120.9 79.6506 120.905 78.7472V71.7609C120.902 70.8567 120.719 69.9621 120.366 69.1282C120.014 68.2944 119.5 67.5376 118.853 66.9013C118.206 66.265 117.439 65.7615 116.596 65.4198C115.753 65.078 114.851 64.9047 113.94 64.9097ZM154.775 51.1233H133.616C132.244 51.1124 130.899 51.5066 129.752 52.2558C128.606 53.005 127.709 54.0754 127.176 55.3314C126.822 56.1652 126.637 57.0603 126.632 57.9653V78.7472C126.637 79.6522 126.822 80.5474 127.176 81.3816C127.709 82.6375 128.606 83.708 129.752 84.4571C130.899 85.2063 132.244 85.6003 133.616 85.5892H154.775C155.685 85.5942 156.587 85.4212 157.429 85.0801C158.272 84.7389 159.038 84.2363 159.685 83.601C160.332 82.9656 160.846 82.2099 161.199 81.3771C161.552 80.5443 161.736 79.6507 161.74 78.7472V57.9653C161.736 57.0619 161.552 56.1682 161.199 55.3355C160.846 54.5027 160.332 53.7472 159.685 53.1121C159.038 52.4765 158.272 51.9737 157.429 51.6325C156.587 51.2912 155.685 51.1182 154.775 51.1233ZM154.723 78.696H133.668V58.0165H154.714L154.723 78.696ZM228.884 51.1233L208.246 51.1233C207.336 51.1183 206.435 51.2913 205.592 51.6324C204.75 51.9736 203.983 52.4762 203.336 53.1115C202.689 53.7469 202.175 54.5026 201.822 55.3354C201.47 56.1682 201.286 57.0618 201.281 57.9653V85.5892H208.317V74.2667H228.861V85.5892H235.896V57.9653C235.892 57.0578 235.706 56.1603 235.351 55.3244C234.995 54.4884 234.477 53.7306 233.825 53.0946C233.173 52.4586 232.401 51.957 231.553 51.6187C230.705 51.2803 229.798 51.112 228.884 51.1233ZM228.833 67.3735H208.288V58.0165H228.833V67.3735ZM311.037 51.1233H290.399C289.49 51.1183 288.588 51.2913 287.745 51.6324C286.903 51.9736 286.136 52.4762 285.489 53.1115C284.843 53.7469 284.328 54.5026 283.976 55.3354C283.623 56.1682 283.439 57.0618 283.434 57.9653V85.5892H290.47V74.2667H310.967V85.5892H318.003V57.9653C317.998 57.0619 317.814 56.1682 317.461 55.3355C317.109 54.5027 316.594 53.7472 315.947 53.1121C314.641 51.829 312.875 51.1136 311.037 51.1233ZM310.967 67.3735H290.423V58.0165H310.967V67.3735ZM270.16 78.696H267.346L257.285 54.011C256.94 53.1593 256.347 52.4293 255.581 51.9147C254.816 51.4002 253.913 51.1246 252.988 51.1233H246.745C245.832 51.1184 244.937 51.3829 244.174 51.8833C243.412 52.3836 242.816 53.0974 242.463 53.9341C242.228 54.4895 242.105 55.0854 242.102 55.6877V85.5892H249.138V58.0165H251.952L262.008 82.7015C262.358 83.5517 262.956 84.2788 263.725 84.7898C264.494 85.3009 265.398 85.5727 266.323 85.5706H272.566C273.173 85.5738 273.775 85.4582 274.336 85.2305C274.898 85.0027 275.409 84.6672 275.84 84.2432C276.711 83.3871 277.204 82.2228 277.21 81.0062V51.1233H270.16V78.696ZM174.991 51.1233H167.955V78.7472C167.96 79.6526 168.145 80.5481 168.499 81.3824C168.853 82.2167 169.37 82.9733 170.019 83.6088C170.668 84.2444 171.438 84.7465 172.283 85.0863C173.128 85.4261 174.032 85.597 174.944 85.5892H196.051V78.696H174.991V51.1233Z" fill="white"/>
</g>
</g>
<path d="M173.293 18.392H176.527L170.697 27.874V33H167.903V27.874L162.095 18.392H165.285L169.289 24.948H169.333L173.293 18.392Z" fill="white" fill-opacity="0.66"/>
<path d="M160.63 28.622C160.63 31.24 158.958 33 156.45 33H146.726V18.392H155.9C158.386 18.392 160.058 20.13 160.058 22.77C160.058 23.914 159.574 24.882 158.804 25.52C159.926 26.114 160.63 27.214 160.63 28.622ZM149.52 30.36H156.45C157.264 30.36 157.836 29.788 157.836 28.908V28.468C157.836 27.588 157.264 26.994 156.45 26.994H149.52V30.36ZM149.52 24.376H155.9C156.736 24.376 157.264 23.782 157.264 22.902V22.484C157.264 21.604 156.736 21.01 155.9 21.01H149.52V24.376Z" fill="white" fill-opacity="0.66"/>
<path d="M122.191 33V18.392H129.143C133.301 18.392 136.359 21.45 136.359 25.696C136.359 29.898 133.301 33 129.143 33H122.191ZM124.985 30.36H129.143C131.629 30.36 133.433 28.424 133.433 25.696C133.433 22.99 131.629 21.01 129.143 21.01H124.985V30.36Z" fill="white" fill-opacity="0.66"/>
<path d="M107.711 21.01V24.376H115.763V26.994H107.711V30.36H118.513V33H104.917V18.392H118.513V21.01H107.711Z" fill="white" fill-opacity="0.66"/>
<path d="M90.0295 26.994V33H87.2355V18.392H97.2455C99.7315 18.392 101.403 20.13 101.403 22.77C101.403 25.102 99.9295 26.752 97.7515 26.972L101.403 33H98.2575L94.7375 26.994H90.0295ZM90.0295 24.376H97.2455C98.0815 24.376 98.6095 23.782 98.6095 22.902V22.484C98.6095 21.604 98.0815 21.01 97.2455 21.01H90.0295V24.376Z" fill="white" fill-opacity="0.66"/>
<path d="M72.756 21.01V24.376H80.808V26.994H72.756V30.36H83.558V33H69.962V18.392H83.558V21.01H72.756Z" fill="white" fill-opacity="0.66"/>
<path d="M63.125 28.16L64.115 18.392H66.843L65.171 33H62.289L58.637 24.244L55.073 33H52.147L50.453 18.392H53.181L54.369 28.182L57.273 21.318H60.045L63.125 28.16Z" fill="white" fill-opacity="0.66"/>
<path d="M40.789 33.286C36.631 33.286 33.573 30.074 33.573 25.696C33.573 21.318 36.631 18.084 40.789 18.084C44.947 18.084 48.005 21.318 48.005 25.696C48.005 30.074 44.947 33.286 40.789 33.286ZM36.499 25.696C36.499 28.468 38.303 30.514 40.789 30.514C43.297 30.514 45.123 28.468 45.123 25.696C45.123 22.902 43.297 20.856 40.789 20.856C38.303 20.856 36.499 22.902 36.499 25.696Z" fill="white" fill-opacity="0.66"/>
<path d="M27.056 18.392C29.542 18.392 31.214 20.13 31.214 22.77C31.214 25.278 29.542 26.994 27.056 26.994H19.84V33H17.046V18.392H27.056ZM19.84 24.376H27.056C27.892 24.376 28.42 23.782 28.42 22.902V22.484C28.42 21.604 27.892 21.01 27.056 21.01H19.84V24.376Z" fill="white" fill-opacity="0.66"/>
<defs>
<linearGradient id="paint0_linear_1_52" x1="19.249" y1="91.7791" x2="60.2373" y2="45.2431" gradientUnits="userSpaceOnUse">
<stop offset="0.08" stop-color="#9945FF"/>
<stop offset="0.3" stop-color="#8752F3"/>
<stop offset="0.5" stop-color="#5497D5"/>
<stop offset="0.6" stop-color="#43B4CA"/>
<stop offset="0.72" stop-color="#28E0B9"/>
<stop offset="0.97" stop-color="#19FB9B"/>
</linearGradient>
<clipPath id="clip0_1_52">
<rect width="303.003" height="44.7125" fill="white" transform="translate(15 46)"/>
</clipPath>
</defs>
</svg>
